v  -9.4107 -6.5839 13.9545
v  -8.7938 -6.0001 13.9511
v  0.2065 -15.5094 14.0291
v  -0.4103 -16.0932 14.0325
v  -9.4197 -6.5316 21.3705
v  -0.4193 -16.0409 21.4485
v  0.1975 -15.4571 21.4451
v  -8.8028 -5.9478 21.3671

vn 0.0012 -0.0071 -1.0000
vn -0.0012 0.0071 1.0000
vn -0.7263 -0.6874 0.0040
vn 0.6874 -0.7263 0.0060
vn -0.6874 0.7263 -0.0060

vt 1.0000 0.0000 0.0000
vt 1.0000 1.0000 0.0000
vt 0.0000 1.0000 0.0000
vt 0.0000 0.0000 0.0000

g Billboard

f 1/1/1 2/2/1 3/3/1
f 3/3/1 4/4/1 1/1/1
f 5/4/2 6/1/2 7/2/2
f 7/2/2 8/3/2 5/4/2
f 1/4/3 4/1/3 6/2/3
f 6/2/3 5/3/3 1/4/3
f 4/4/4 3/1/4 7/2/4
f 7/2/4 6/3/4 4/4/4
f 2/4/5 1/1/5 5/2/5
f 5/2/5 8/3/5 2/4/5
