v  9.9277 2.1738 4.8219
v  7.7397 -0.6896 0.6240
v  7.3068 2.7972 0.7157
v  10.3502 -2.1094 4.8220
v  5.6856 -5.8950 0.5645
v  8.8878 -7.9123 4.8221
v  5.9887 -10.8454 0.6113
v  7.5612 -13.2533 4.8220
v  4.3543 -12.7055 0.6227
v  5.7428 -15.1093 4.8219
v  -0.5408 -14.7644 0.6306
v  0.1796 -16.7806 4.8219
v  -4.6694 -15.0615 0.6349
v  -4.8984 -16.2547 4.8220
v  -10.0606 -10.3143 0.5726
v  -11.6173 -11.6208 4.8220
v  -14.9384 -4.9488 0.6276
v  -16.2598 -4.9164 4.8220
v  -14.8065 -0.7986 0.6213
v  -16.7707 0.1770 4.8220
v  -12.7959 4.1735 0.6056
v  -15.1045 5.7447 4.8219
v  -11.0200 5.9232 0.5900
v  -13.2582 7.5372 4.8219
v  -6.1670 5.6135 0.5278
v  -7.9199 8.8672 4.8217
v  -0.9347 7.7045 0.5741
v  -2.1188 10.3467 4.8217
v  2.6205 7.3528 0.5766
v  2.1589 9.9416 4.8218
v  4.9507 5.0652 0.5178
v  6.1180 6.1470 4.8218
v  -10.3906 -5.8148 -4.2540
v  -12.6243 -3.1491 -4.5182
v  -12.5163 -0.9797 -4.6974
v  -11.3476 1.5181 -5.3865
v  -10.4424 2.3304 -5.5498
v  -3.8822 1.0168 0.2441
v  -8.0107 2.2596 -5.0590
v  -2.6799 -2.6819 0.4119
v  -6.6696 -5.9843 0.3029
v  -6.4990 -1.5738 -3.5224
v  2.3290 -8.0900 -5.0233
v  2.3044 -10.5740 -4.6450
v  1.3817 -11.4240 -4.4473
v  -1.1651 -12.5645 -4.2060
v  -3.3414 -12.5319 -4.2172
v  -5.8351 -10.2753 -4.5867
v  0.9765 -4.7130 0.2518
v  -1.5946 -6.5025 -4.3420
v  4.8178 2.4304 -4.7880
v  5.1458 0.5703 -4.2203
v  3.7458 -2.0455 -4.4701
v  -0.2474 -0.2683 -4.6921
v  -2.0047 3.8264 -5.8126
v  0.7468 5.1795 -5.9527
v  2.4901 4.7651 -5.7524
v  3.5050 3.5048 -5.3966
v  -8.4226 -3.5503 -3.4988
v  -6.8380 0.2895 -4.3105
v  1.4111 -1.2332 -4.5723
v  -0.8013 1.4694 -5.2076
v  -3.8541 -8.1141 -3.9627
v  0.2085 -7.2727 -4.8745
v  -10.0945 -0.5183 -7.1801
v  -0.5243 -10.0932 -6.5384
v  2.0822 2.0782 -7.2623

vn 0.8237 0.3252 -0.4645
vn 0.8474 -0.0991 -0.5216
vn 0.8013 0.4274 -0.4187
vn 0.8106 -0.1062 -0.5759
vn 0.7167 -0.0996 -0.6902
vn 0.8054 -0.1323 -0.5778
vn 0.7893 -0.2749 -0.5491
vn 0.7341 -0.4418 -0.5157
vn 0.5072 -0.6899 -0.5165
vn 0.4549 -0.7147 -0.5312
vn 0.1909 -0.8724 -0.4500
vn 0.1296 -0.9005 -0.4151
vn -0.3314 -0.8553 -0.3982
vn -0.3537 -0.8842 -0.3051
vn -0.5630 -0.5835 -0.5853
vn -0.6246 -0.6724 -0.3971
vn -0.8624 -0.3168 -0.3949
vn -0.9042 -0.2853 -0.3179
vn -0.9000 0.1590 -0.4059
vn -0.8767 0.1226 -0.4651
vn -0.7334 0.4812 -0.4802
vn -0.7127 0.4351 -0.5503
vn -0.2569 0.8414 -0.4754
vn -0.3901 0.7357 -0.5537
vn -0.1341 0.7371 -0.6624
vn -0.2120 0.7503 -0.6262
vn -0.1089 0.8634 -0.4927
vn -0.0805 0.8357 -0.5432
vn 0.4146 0.8225 -0.3894
vn 0.3231 0.8228 -0.4676
vn 0.6680 0.6652 -0.3336
vn 0.6618 0.6665 -0.3431
vn 0.0343 -0.6448 -0.7636
vn -0.7280 -0.2837 -0.6241
vn -0.8371 0.1260 -0.5324
vn -0.7105 0.3991 -0.5796
vn -0.2334 0.6744 -0.7005
vn 0.7737 0.2581 -0.5787
vn 0.4821 0.5200 -0.7051
vn 0.6723 -0.2068 -0.7108
vn 0.5973 -0.5354 -0.5971
vn 0.6816 -0.3087 -0.6635
vn 0.5452 0.3783 -0.7481
vn 0.6291 -0.3910 -0.6718
vn 0.3867 -0.7211 -0.5749
vn 0.1415 -0.8080 -0.5719
vn -0.2621 -0.7202 -0.6424
vn -0.5666 0.5697 -0.5953
vn -0.6098 -0.0506 -0.7909
vn -0.1022 0.7639 -0.6372
vn 0.3105 0.8130 -0.4925
vn -0.1464 0.6841 -0.7145
vn 0.7720 0.2794 -0.5709
vn 0.7775 -0.1659 -0.6066
vn -0.2921 -0.7746 -0.5610
vn 0.2819 -0.6149 -0.7365
vn -0.6355 -0.5356 -0.5561
vn -0.8039 -0.3614 -0.4724
vn -0.5400 -0.5349 -0.6498
vn -0.6459 0.1638 -0.7456
vn -0.0643 0.7206 -0.6904
vn 0.4877 0.6330 -0.6012
vn 0.6956 0.4561 -0.5551
vn 0.6239 -0.4691 -0.6251
vn 0.7592 0.0356 -0.6499
vn -0.2771 -0.6812 -0.6776
vn -0.6242 -0.4384 -0.6467
vn -0.4397 0.5430 -0.7155
vn 0.1508 0.6945 -0.7035
vn -0.0065 -0.0428 -0.9991
vn 0.0414 -0.1142 -0.9926
vn 0.1301 -0.0960 -0.9868

vt 0.8125 1.0000 1.0000
vt 0.7500 1.0000 1.0000
vt 0.6875 1.0000 1.0000
vt 0.3720 1.0000 -0.0574
vt 0.3215 1.0000 -0.1643
vt 0.2192 1.0000 -0.4455
vt 0.1599 1.0000 -0.6437
vt 0.2065 1.0000 -0.6842
vt 0.3161 1.0000 -0.5780
vt 0.4328 1.0000 -0.3670
vt 0.5818 1.0000 -0.0652
vt 0.6557 1.0000 0.1074
vt 0.7734 1.0000 0.4374
vt 0.9022 1.0000 0.8247
vt 0.9375 1.0000 1.0000
vt 0.8750 1.0000 1.0000
vt 0.3553 1.0000 -0.4092
vt 0.4101 1.0000 -0.3561
vt 0.4685 1.0000 -0.2506
vt 0.5430 1.0000 -0.0997
vt 0.5799 1.0000 -0.0134
vt 0.6681 1.0000 0.3238
vt 0.6388 1.0000 0.1516
vt 0.5627 1.0000 0.2103
vt 0.3846 1.0000 -0.2369
vt 0.5334 1.0000 0.0380
vt 0.5244 1.0000 0.4439
vt 0.3667 1.0000 -0.0848
vt 0.3414 1.0000 -0.1382
vt 0.2902 1.0000 -0.2788
vt 0.2606 1.0000 -0.3779
vt 0.2839 1.0000 -0.3981
vt 0.6251 1.0000 0.6051
vt 0.4620 1.0000 0.0491
vt 0.8001 1.0000 0.9045
vt 0.7688 1.0000 0.9045
vt 0.7376 1.0000 0.9045
vt 0.6752 1.0000 0.5096
vt 0.7805 1.0000 0.6232
vt 0.8449 1.0000 0.8169
vt 0.8626 1.0000 0.9045
vt 0.8313 1.0000 0.9045
vt 0.4444 1.0000 -0.1856
vt 0.5861 1.0000 0.0948
vt 0.7064 1.0000 0.7071
vt 0.7278 1.0000 0.5664
vt 0.3730 1.0000 -0.1745
vt 0.4932 1.0000 0.2465
vt 0.5041 1.0000 -0.1342
vt 0.3613 1.0000 -0.1121
vt 0.7876 1.0000 0.8090

g Ground

f 1/1/1 2/2/2 3/1/3
f 4/2/4 5/3/5 2/2/2
f 6/3/6 7/4/7 5/3/5
f 8/4/8 9/5/9 7/4/7
f 10/5/10 11/6/11 9/5/9
f 12/6/12 13/7/13 11/6/11
f 14/7/14 15/8/15 13/7/13
f 16/8/16 17/9/17 15/8/15
f 18/9/18 19/10/19 17/9/17
f 20/10/20 21/11/21 19/10/19
f 22/11/22 23/12/23 21/11/21
f 24/12/24 25/13/25 23/12/23
f 26/13/26 27/14/27 25/13/25
f 28/14/28 29/15/29 27/14/27
f 30/15/30 31/16/31 29/15/29
f 32/16/32 3/1/3 31/16/31
f 15/8/15 17/9/17 33/17/33
f 17/9/17 19/10/19 34/18/34
f 19/10/19 21/11/21 35/19/35
f 21/11/21 23/12/23 36/20/36
f 23/12/23 25/13/25 37/21/37
f 25/13/25 38/22/38 39/23/39
f 40/24/40 41/25/41 42/26/42
f 5/3/5 7/4/7 43/27/43
f 7/4/7 9/5/9 44/28/44
f 9/5/9 11/6/11 45/29/45
f 11/6/11 13/7/13 46/30/46
f 13/7/13 15/8/15 47/31/47
f 15/8/15 41/25/48 48/32/49
f 40/24/50 49/33/51 50/34/52
f 3/1/3 2/2/2 51/35/53
f 2/2/2 5/3/5 52/36/54
f 5/3/5 49/33/55 53/37/56
f 40/24/57 38/22/58 54/38/59
f 25/13/25 27/14/27 55/39/60
f 27/14/27 29/15/29 56/40/61
f 29/15/29 31/16/31 57/41/62
f 31/16/31 51/35/53 58/42/63
f 41/25/41 33/17/33 59/43/64
f 38/22/38 42/26/42 60/44/65
f 49/33/55 54/38/59 61/45/66
f 38/22/58 55/39/60 62/46/67
f 41/25/48 50/34/52 63/47/68
f 49/33/51 43/27/43 64/48/69
f 34/18/34 65/49/70 33/17/33
f 35/19/35 65/49/70 34/18/34
f 36/20/36 65/49/70 35/19/35
f 37/21/37 65/49/70 36/20/36
f 39/23/39 65/49/70 37/21/37
f 60/44/65 65/49/70 39/23/39
f 59/43/64 65/49/70 42/26/42
f 44/28/44 66/50/71 43/27/43
f 45/29/45 66/50/71 44/28/44
f 46/30/46 66/50/71 45/29/45
f 47/31/47 66/50/71 46/30/46
f 48/32/49 66/50/71 47/31/47
f 63/47/68 66/50/71 48/32/49
f 64/48/69 66/50/71 50/34/52
f 52/36/54 67/51/72 51/35/53
f 53/37/56 67/51/72 52/36/54
f 61/45/66 67/51/72 53/37/56
f 62/46/67 67/51/72 54/38/59
f 56/40/61 67/51/72 55/39/60
f 57/41/62 67/51/72 56/40/61
f 58/42/63 67/51/72 57/41/62
f 51/35/53 67/51/72 58/42/63
f 33/17/33 65/49/70 59/43/64
f 42/26/42 65/49/70 60/44/65
f 54/38/59 67/51/72 61/45/66
f 55/39/60 67/51/72 62/46/67
f 50/34/52 66/50/71 63/47/68
f 43/27/43 66/50/71 64/48/69
f 1/1/1 4/2/4 2/2/2
f 4/2/4 6/3/6 5/3/5
f 6/3/6 8/4/8 7/4/7
f 8/4/8 10/5/10 9/5/9
f 10/5/10 12/6/12 11/6/11
f 12/6/12 14/7/14 13/7/13
f 14/7/14 16/8/16 15/8/15
f 16/8/16 18/9/18 17/9/17
f 18/9/18 20/10/20 19/10/19
f 20/10/20 22/11/22 21/11/21
f 22/11/22 24/12/24 23/12/23
f 24/12/24 26/13/26 25/13/25
f 26/13/26 28/14/28 27/14/27
f 28/14/28 30/15/30 29/15/29
f 30/15/30 32/16/32 31/16/31
f 32/16/32 1/1/1 3/1/3
f 17/9/17 34/18/34 33/17/33
f 19/10/19 35/19/35 34/18/34
f 21/11/21 36/20/36 35/19/35
f 23/12/23 37/21/37 36/20/36
f 25/13/25 39/23/39 37/21/37
f 38/22/38 60/44/65 39/23/39
f 41/25/41 59/43/64 42/26/42
f 7/4/7 44/28/44 43/27/43
f 9/5/9 45/29/45 44/28/44
f 11/6/11 46/30/46 45/29/45
f 13/7/13 47/31/47 46/30/46
f 15/8/15 48/32/49 47/31/47
f 41/25/48 63/47/68 48/32/49
f 49/33/51 64/48/69 50/34/52
f 2/2/2 52/36/54 51/35/53
f 5/3/5 53/37/56 52/36/54
f 49/33/55 61/45/66 53/37/56
f 38/22/58 62/46/67 54/38/59
f 27/14/27 56/40/61 55/39/60
f 29/15/29 57/41/62 56/40/61
f 31/16/31 58/42/63 57/41/62
f 31/16/31 3/1/3 51/35/53
f 41/25/41 15/8/15 33/17/33
f 38/22/38 40/24/40 42/26/42
f 49/33/55 40/24/57 54/38/59
f 38/22/58 25/13/25 55/39/60
f 41/25/48 40/24/50 50/34/52
f 49/33/51 5/3/5 43/27/43
