v  9.3754 2.9065 9.8627
v  10.7907 -2.1557 5.1672
v  10.3612 2.3635 5.1151
v  6.0427 5.8702 9.9036
v  6.4706 6.4850 5.0958
v  3.0680 9.2870 9.8661
v  2.3392 10.3829 5.1173
v  -0.9014 9.5332 9.9039
v  -2.1722 10.7660 5.1834
v  -6.3430 7.6074 9.9437
v  -8.0102 9.2547 5.2123
v  -11.3435 6.6541 9.9229
v  -13.4564 7.8699 5.2313
v  -13.4310 4.7538 9.9329
v  -15.4234 5.9429 5.2426
v  -15.1408 -0.0387 9.9324
v  -17.1723 0.2271 5.2152
v  -15.2827 -4.6826 9.9034
v  -16.6654 -5.0646 5.1775
v  -11.0162 -10.7774 9.9110
v  -11.9249 -11.9274 5.1755
v  -4.9202 -15.1824 9.9003
v  -5.0305 -16.6524 5.1889
v  -0.2658 -15.1752 9.9266
v  0.2218 -17.1609 5.2280
v  4.5943 -13.5071 9.9324
v  5.9339 -15.4227 5.2472
v  6.5951 -11.4921 9.9200
v  7.8870 -13.4450 5.2359
v  7.5423 -6.5795 9.9474
v  9.2748 -8.0195 5.2168
v  9.5025 -1.1077 9.9105
v  5.3833 0.2825 10.0081
v  3.1415 2.9993 10.0169
v  -2.1852 -2.1852 10.2284
v  0.3955 5.3719 10.0083
v  -5.2758 3.6642 10.0538
v  -9.6939 2.6474 10.0347
v  -11.1293 -2.1296 10.0228
v  -8.0734 -7.8784 10.0213
v  -2.2772 -11.1049 10.0196
v  2.6018 -9.7326 10.0328
v  3.6019 -5.5006 10.0553
v  10.3502 -2.1094 4.8220
v  9.9277 2.1738 4.8219
v  6.1180 6.1470 4.8218
v  2.1589 9.9416 4.8218
v  -2.1188 10.3467 4.8217
v  -7.9199 8.8672 4.8217
v  -13.2582 7.5372 4.8219
v  -15.1045 5.7447 4.8219
v  -16.7707 0.1770 4.8220
v  -16.2598 -4.9164 4.8220
v  -11.6173 -11.6208 4.8220
v  -4.8984 -16.2547 4.8220
v  0.1796 -16.7806 4.8219
v  5.7428 -15.1093 4.8219
v  7.5612 -13.2533 4.8220
v  8.8878 -7.9123 4.8221

vn 0.6520 0.3577 0.6685
vn 0.9512 -0.0950 -0.2936
vn 0.8491 0.3714 -0.3756
vn 0.4753 0.4492 0.7565
vn 0.6415 0.6247 -0.4452
vn 0.3438 0.6499 0.6778
vn 0.3464 0.8590 -0.3771
vn -0.0628 0.6546 0.7534
vn -0.1093 0.9595 -0.2595
vn -0.1354 0.5372 0.8325
vn -0.2334 0.9504 -0.2056
vn -0.2590 0.5577 0.7886
vn -0.4989 0.8525 -0.1558
vn -0.4890 0.3248 0.8095
vn -0.8435 0.5215 -0.1283
vn -0.5785 0.1005 0.8095
vn -0.9744 0.1150 -0.1930
vn -0.6251 -0.2136 0.7508
vn -0.9052 -0.3305 -0.2670
vn -0.4596 -0.4480 0.7669
vn -0.6795 -0.6794 -0.2771
vn -0.2103 -0.6339 0.7443
vn -0.3109 -0.9183 -0.2449
vn 0.0794 -0.5991 0.7967
vn 0.1051 -0.9816 -0.1595
vn 0.3064 -0.5030 0.8081
vn 0.5146 -0.8497 -0.1149
vn 0.5642 -0.2674 0.7811
vn 0.8564 -0.4970 -0.1397
vn 0.5215 -0.1533 0.8394
vn 0.9463 -0.2549 -0.1988
vn 0.6378 -0.0659 0.7674
vn 0.0258 0.0092 0.9996
vn 0.0206 0.0195 0.9996
vn 0.0017 0.0016 1.0000
vn 0.0092 0.0257 0.9996
vn -0.0058 0.0262 0.9996
vn -0.0171 0.0145 0.9997
vn -0.0227 -0.0037 0.9997
vn -0.0179 -0.0186 0.9997
vn -0.0047 -0.0229 0.9997
vn 0.0141 -0.0171 0.9998
vn 0.0259 -0.0061 0.9996
vn 0.6101 -0.0494 -0.7908
vn 0.4777 0.2180 -0.8510
vn 0.3449 0.3500 -0.8710
vn 0.2171 0.4847 -0.8473
vn -0.0506 0.6500 -0.7582
vn -0.1742 0.6800 -0.7122
vn -0.3537 0.6362 -0.6856
vn -0.6349 0.3889 -0.6676
vn -0.6919 0.0685 -0.7187
vn -0.5964 -0.2193 -0.7722
vn -0.4451 -0.4485 -0.7751
vn -0.2268 -0.6209 -0.7504
vn 0.0699 -0.7254 -0.6848
vn 0.3884 -0.6486 -0.6546
vn 0.6426 -0.3609 -0.6758
vn 0.6767 -0.1743 -0.7153

vt 0.8125 1.0000 1.0000
vt 0.7500 1.0000 1.0000
vt 0.8750 1.0000 1.0000
vt 0.9375 1.0000 1.0000
vt 0.9022 1.0000 0.8247
vt 0.7734 1.0000 0.4374
vt 0.6557 1.0000 0.1074
vt 0.5818 1.0000 -0.0652
vt 0.4328 1.0000 -0.3670
vt 0.3161 1.0000 -0.5780
vt 0.2065 1.0000 -0.6842
vt 0.1599 1.0000 -0.6437
vt 0.2192 1.0000 -0.4455
vt 0.3215 1.0000 -0.1643
vt 0.3720 1.0000 -0.0574
vt 0.6875 1.0000 1.0000
vt 0.7813 1.0000 1.0000
vt 0.5627 1.0000 0.2103
vt 0.9199 1.0000 0.9123
vt 0.6187 1.0000 0.0211
vt 0.3745 1.0000 -0.4725
vt 0.1895 1.0000 -0.5446
vt 0.3467 1.0000 -0.1108

g Grass

f 1/1/1 2/2/2 3/1/3
f 4/3/4 3/1/3 5/3/5
f 6/4/6 5/3/5 7/4/7
f 8/5/8 7/4/7 9/5/9
f 10/6/10 9/5/9 11/6/11
f 12/7/12 11/6/11 13/7/13
f 14/8/14 13/7/13 15/8/15
f 16/9/16 15/8/15 17/9/17
f 18/10/18 17/9/17 19/10/19
f 20/11/20 19/10/19 21/11/21
f 22/12/22 21/11/21 23/12/23
f 24/13/24 23/12/23 25/13/25
f 26/14/26 25/13/25 27/14/27
f 28/15/28 27/14/27 29/15/29
f 30/16/30 29/15/29 31/16/31
f 32/2/32 31/16/31 2/2/2
f 33/17/33 34/3/34 35/18/35
f 34/3/34 36/19/36 35/18/35
f 36/19/36 37/6/37 35/18/35
f 37/6/37 38/20/38 35/18/35
f 38/20/38 39/21/39 35/18/35
f 39/21/39 40/11/40 35/18/35
f 40/11/40 41/22/41 35/18/35
f 41/22/41 42/23/42 35/18/35
f 42/23/42 43/16/43 35/18/35
f 43/16/43 33/17/33 35/18/35
f 1/1/1 32/2/32 2/2/2
f 4/3/4 1/1/1 3/1/3
f 6/4/6 4/3/4 5/3/5
f 8/5/8 6/4/6 7/4/7
f 10/6/10 8/5/8 9/5/9
f 12/7/12 10/6/10 11/6/11
f 14/8/14 12/7/12 13/7/13
f 16/9/16 14/8/14 15/8/15
f 18/10/18 16/9/16 17/9/17
f 20/11/20 18/10/18 19/10/19
f 22/12/22 20/11/20 21/11/21
f 24/13/24 22/12/22 23/12/23
f 26/14/26 24/13/24 25/13/25
f 28/15/28 26/14/26 27/14/27
f 30/16/30 28/15/28 29/15/29
f 32/2/32 30/16/30 31/16/31
f 44/2/44 45/1/45 3/1/3
f 3/1/3 2/2/2 44/2/44
f 45/1/45 46/3/46 5/3/5
f 5/3/5 3/1/3 45/1/45
f 46/3/46 47/4/47 7/4/7
f 7/4/7 5/3/5 46/3/46
f 47/4/47 48/5/48 9/5/9
f 9/5/9 7/4/7 47/4/47
f 48/5/48 49/6/49 11/6/11
f 11/6/11 9/5/9 48/5/48
f 49/6/49 50/7/50 13/7/13
f 13/7/13 11/6/11 49/6/49
f 50/7/50 51/8/51 15/8/15
f 15/8/15 13/7/13 50/7/50
f 51/8/51 52/9/52 17/9/17
f 17/9/17 15/8/15 51/8/51
f 52/9/52 53/10/53 19/10/19
f 19/10/19 17/9/17 52/9/52
f 53/10/53 54/11/54 21/11/21
f 21/11/21 19/10/19 53/10/53
f 54/11/54 55/12/55 23/12/23
f 23/12/23 21/11/21 54/11/54
f 55/12/55 56/13/56 25/13/25
f 25/13/25 23/12/23 55/12/55
f 56/13/56 57/14/57 27/14/27
f 27/14/27 25/13/25 56/13/56
f 57/14/57 58/15/58 29/15/29
f 29/15/29 27/14/27 57/14/57
f 58/15/58 59/16/59 31/16/31
f 31/16/31 29/15/29 58/15/58
f 59/16/59 44/2/44 2/2/2
f 2/2/2 31/16/31 59/16/59
f 32/2/32 1/1/1 33/17/33
f 1/1/1 4/3/4 34/3/34
f 34/3/34 33/17/33 1/1/1
f 4/3/4 6/4/6 36/19/36
f 36/19/36 34/3/34 4/3/4
f 6/4/6 8/5/8 36/19/36
f 8/5/8 10/6/10 37/6/37
f 37/6/37 36/19/36 8/5/8
f 10/6/10 12/7/12 38/20/38
f 38/20/38 37/6/37 10/6/10
f 12/7/12 14/8/14 38/20/38
f 14/8/14 16/9/16 39/21/39
f 39/21/39 38/20/38 14/8/14
f 16/9/16 18/10/18 39/21/39
f 18/10/18 20/11/20 40/11/40
f 40/11/40 39/21/39 18/10/18
f 20/11/20 22/12/22 41/22/41
f 41/22/41 40/11/40 20/11/20
f 22/12/22 24/13/24 41/22/41
f 24/13/24 26/14/26 42/23/42
f 42/23/42 41/22/41 24/13/24
f 26/14/26 28/15/28 42/23/42
f 28/15/28 30/16/30 43/16/43
f 43/16/43 42/23/42 28/15/28
f 30/16/30 32/2/32 33/17/33
f 33/17/33 43/16/43 30/16/30
